<?xml version="1.0" standalone="no"?>
<!DOCTYPE svg PUBLIC "-//W3C//DTD SVG 20010904//EN"
 "http://www.w3.org/TR/2001/REC-SVG-20010904/DTD/svg10.dtd">
<svg version="1.0" xmlns="http://www.w3.org/2000/svg"
 width="177.000000pt" height="133.000000pt" viewBox="0 0 177.000000 133.000000"
 preserveAspectRatio="xMidYMid meet">

<g transform="translate(0.000000,133.000000) scale(0.100000,-0.100000)"
fill="#000000" stroke="none">
<path d="M768 1133 c7 -3 16 -2 19 1 4 3 -2 6 -13 5 -11 0 -14 -3 -6 -6z"/>
<path d="M818 1133 c6 -2 18 -2 25 0 6 3 1 5 -13 5 -14 0 -19 -2 -12 -5z"/>
<path d="M632 548 l3 -142 25 0 25 0 3 142 3 142 -31 0 -31 0 3 -142z"/>
<path d="M471 663 c-73 -38 -98 -112 -62 -186 17 -35 31 -49 62 -61 68 -28
139 -19 139 16 0 17 -5 19 -30 13 -38 -8 -97 11 -110 35 -17 32 -12 105 9 131
15 19 30 24 72 25 45 2 54 5 54 21 0 26 -87 30 -134 6z"/>
<path d="M720 499 l0 -100 28 3 27 3 3 98 3 97 -31 0 -30 0 0 -101z"/>
<path d="M810 499 l0 -100 28 3 c26 3 27 5 32 78 l5 75 30 0 30 0 5 -75 c5
-72 6 -75 30 -75 24 0 25 3 30 74 4 64 8 75 27 82 32 12 42 -7 45 -86 3 -67 4
-70 28 -70 24 1 25 3 28 79 2 63 -1 82 -14 97 -21 23 -86 26 -107 4 -13 -13
-16 -13 -27 0 -14 17 -72 20 -101 5 -13 -7 -19 -7 -19 0 0 5 -11 10 -25 10
l-25 0 0 -101z"/>
<path d="M1177 593 c-20 -19 -4 -31 40 -30 36 2 48 -2 51 -14 2 -12 -7 -18
-38 -22 -51 -7 -80 -31 -80 -68 0 -42 40 -66 90 -53 20 6 46 7 57 3 35 -13 43
3 40 81 -4 91 -22 110 -101 110 -29 0 -56 -3 -59 -7z m103 -111 c0 -24 -19
-42 -46 -42 -28 0 -38 25 -18 45 22 22 64 20 64 -3z"/>
<path d="M410 348 c-10 -22 -10 -22 4 -4 18 22 49 14 44 -11 -2 -11 -12 -18
-25 -17 -12 0 -19 -4 -16 -9 3 -5 14 -7 24 -4 12 3 19 -2 22 -17 2 -11 5 0 6
25 1 34 -3 48 -15 53 -26 10 -33 7 -44 -16z"/>
<path d="M541 343 c-1 -24 -6 -33 -23 -36 l-23 -4 23 -2 c25 -1 36 16 29 51
-3 18 -5 16 -6 -9z"/>
<path d="M581 356 c-16 -19 -11 -48 9 -54 11 -4 13 -2 4 9 -5 8 -10 21 -10 29
1 22 33 24 40 3 4 -15 5 -15 3 2 -3 25 -30 31 -46 11z"/>
<path d="M700 351 c-15 -29 -2 -54 26 -48 17 3 24 -1 27 -17 2 -12 5 0 6 25 1
34 -3 48 -15 53 -25 10 -33 7 -44 -13z m48 -14 c4 -20 -25 -34 -39 -20 -14 14
1 45 20 41 9 -2 17 -11 19 -21z"/>
<path d="M831 343 c0 -17 -7 -34 -13 -36 -10 -4 -10 -6 0 -6 16 -1 25 21 19
51 -3 18 -5 16 -6 -9z"/>
<path d="M871 356 c-18 -21 -10 -50 14 -53 15 -1 16 -1 3 3 -22 7 -18 48 5 52
20 4 23 -14 5 -21 -8 -3 -5 -6 5 -6 12 -1 17 5 15 16 -4 23 -31 28 -47 9z"/>
<path d="M953 363 c-7 -2 -12 -17 -12 -31 1 -21 2 -22 6 -7 3 11 12 26 21 33
16 12 8 15 -15 5z"/>
<path d="M1002 358 c-14 -14 -16 -44 -3 -52 4 -3 7 6 5 19 -1 15 4 29 14 35
10 5 12 10 7 10 -6 0 -16 -5 -23 -12z"/>
<path d="M1080 360 c-12 -8 -10 -10 10 -8 20 3 26 -3 31 -27 7 -30 7 -29 6 5
-2 37 -20 48 -47 30z"/>
<path d="M1140 366 c0 -2 7 -7 16 -10 8 -3 12 -2 9 4 -6 10 -25 14 -25 6z"/>
<path d="M1213 363 c-7 -2 -13 -12 -13 -21 0 -13 2 -13 14 3 12 17 16 18 32 5
15 -13 17 -13 12 0 -5 16 -25 22 -45 13z"/>
<path d="M1285 359 c-4 -6 -4 -13 -1 -16 3 -4 6 -1 6 5 0 6 8 13 18 15 15 4
15 5 0 6 -9 0 -20 -4 -23 -10z"/>
<path d="M492 340 c0 -14 2 -19 5 -12 2 6 2 18 0 25 -3 6 -5 1 -5 -13z"/>
<path d="M780 344 c0 -10 5 -26 10 -34 8 -11 9 -7 4 15 -8 37 -14 45 -14 19z"/>
<path d="M1041 344 c0 -11 3 -14 6 -6 3 7 2 16 -1 19 -3 4 -6 -2 -5 -13z"/>
<path d="M1072 320 c0 -14 2 -19 5 -12 2 6 2 18 0 25 -3 6 -5 1 -5 -13z"/>
<path d="M1250 321 c0 -9 -9 -12 -25 -9 -13 3 -22 1 -19 -3 7 -13 42 -11 49 2
4 6 4 13 1 16 -3 4 -6 1 -6 -6z"/>
<path d="M1288 303 c6 -2 18 -2 25 0 6 3 1 5 -13 5 -14 0 -19 -2 -12 -5z"/>
</g>
</svg>
