<?xml version="1.0" standalone="no"?>
<!DOCTYPE svg PUBLIC "-//W3C//DTD SVG 20010904//EN"
 "http://www.w3.org/TR/2001/REC-SVG-20010904/DTD/svg10.dtd">
<svg version="1.0" xmlns="http://www.w3.org/2000/svg"
 width="148.000000pt" height="122.000000pt" viewBox="0 0 148.000000 122.000000"
 preserveAspectRatio="xMidYMid meet">

<g transform="translate(0.000000,122.000000) scale(0.100000,-0.100000)"
fill="#000000" stroke="none">
<path d="M670 1061 c-25 -49 1 -101 52 -101 49 0 78 69 42 104 -21 22 -27 20
-14 -4 6 -12 10 -35 8 -53 -2 -25 -8 -33 -26 -35 -13 -2 -30 2 -38 8 -17 15
-19 71 -2 88 9 9 9 12 0 12 -6 0 -16 -9 -22 -19z"/>
<path d="M855 1059 c-11 -17 1 -21 15 -4 8 9 8 15 2 15 -6 0 -14 -5 -17 -11z"/>
<path d="M568 1039 c-28 -14 -38 -26 -37 -42 l2 -22 4 23 c2 12 10 22 18 22
16 0 58 -78 51 -96 -4 -11 -1 -11 13 -2 17 10 16 14 -10 62 -20 36 -24 53 -16
58 6 4 18 1 26 -5 11 -10 13 -9 10 2 -8 22 -20 22 -61 0z"/>
<path d="M894 1052 c6 -10 -32 -94 -47 -104 -9 -6 -9 -8 0 -8 6 0 19 -3 29 -7
11 -4 15 -3 11 4 -9 14 24 103 38 103 5 0 3 5 -5 10 -18 12 -33 13 -26 2z"/>
<path d="M940 1019 c0 -11 5 -17 10 -14 6 3 10 13 10 21 0 8 -4 14 -10 14 -5
0 -10 -9 -10 -21z"/>
<path d="M450 945 c-21 -22 -28 -35 -19 -35 7 0 32 -18 54 -39 l41 -39 32 38
c28 34 30 39 15 51 -14 12 -15 11 -9 -7 4 -14 0 -26 -12 -37 -16 -15 -21 -15
-37 -3 -16 11 -17 17 -7 29 9 10 10 17 2 22 -5 3 -10 -1 -10 -9 0 -21 -13 -20
-33 2 -19 21 -6 42 26 42 10 0 15 5 12 10 -10 16 -19 12 -55 -25z"/>
<path d="M967 942 c-33 -15 -56 -30 -52 -34 4 -4 14 -1 22 7 19 19 26 19 46
-3 24 -27 7 -42 -66 -57 -78 -16 -147 -53 -147 -77 0 -24 -22 -23 -38 2 -7 12
-18 18 -24 14 -6 -4 -8 -3 -5 3 10 17 -35 51 -72 55 -31 3 -35 0 -43 -29 -10
-37 9 -85 42 -106 32 -19 23 -34 -23 -39 -30 -4 -60 -17 -95 -44 -29 -21 -52
-42 -52 -46 0 -4 -9 -8 -20 -8 -30 0 -24 26 10 40 17 7 30 19 30 27 0 11 -7 9
-30 -7 -27 -19 -31 -20 -46 -6 -19 20 -19 20 -38 0 -10 -9 -16 -32 -15 -57 0
-23 3 -36 6 -29 2 6 22 12 42 12 36 0 37 -1 33 -31 -4 -26 -6 -29 -14 -15 -23
40 -68 7 -68 -51 0 -28 0 -28 56 -24 40 2 59 -1 65 -10 6 -9 8 -2 8 21 0 19
-3 29 -6 23 -8 -22 -43 -15 -43 8 0 18 5 20 26 16 20 -3 40 7 92 50 37 30 68
59 70 63 6 15 32 -1 32 -19 0 -21 42 -46 63 -38 9 3 18 -1 22 -11 6 -16 7 -16
16 1 11 18 54 23 64 7 9 -14 25 -12 25 3 0 6 13 19 29 28 20 12 30 27 34 50 4
29 0 40 -29 69 -38 40 -42 53 -16 49 9 -2 42 5 71 15 30 11 68 19 83 18 38 -1
108 61 101 89 -3 12 -9 17 -12 12 -8 -13 -87 -43 -94 -37 -3 3 3 31 14 61 10
31 19 58 19 60 0 7 -17 1 -73 -25z m42 -13 c-8 -16 -14 -18 -22 -10 -9 9 -8
14 3 21 24 16 31 11 19 -11z m76 -79 c-3 -5 -19 -19 -35 -30 -28 -20 -30 -20
-30 -3 0 12 11 24 28 30 36 14 44 15 37 3z m-241 -153 c-3 -35 -4 -38 -15 -32
-6 4 -8 13 -5 21 3 8 1 14 -5 14 -6 0 -7 5 -4 11 10 15 30 5 29 -14z m-34 -18
c21 -29 21 -31 5 -50 -18 -19 -18 -18 -40 14 -13 17 -21 34 -19 36 4 5 30 -22
37 -39 4 -12 6 -12 6 2 1 9 -3 19 -9 23 -5 3 -6 13 -3 22 4 11 3 14 -5 9 -7
-4 -12 -2 -12 3 0 20 19 11 40 -20z m39 -58 c-12 -41 -31 -50 -37 -18 -2 12 1
15 12 11 12 -5 15 -2 10 10 -3 9 -1 16 5 16 6 0 11 8 11 17 0 9 3 14 6 11 3
-3 0 -25 -7 -47z m-439 -21 c0 -15 -7 -20 -25 -20 -18 0 -25 5 -25 20 0 15 7
20 25 20 18 0 25 -5 25 -20z m8 -117 c3 -20 -1 -23 -27 -23 -23 0 -31 5 -31
18 0 25 10 33 35 30 12 -2 21 -12 23 -25z"/>
<path d="M386 844 c-3 -8 -2 -12 4 -9 5 3 37 -8 71 -26 45 -22 58 -33 48 -39
-7 -5 -10 -12 -6 -16 4 -4 12 -3 18 3 21 21 -1 50 -60 77 -69 31 -67 30 -75
10z"/>
<path d="M379 770 l-24 -19 30 10 c43 16 85 -2 85 -36 0 -52 -89 -55 -110 -3
-7 18 -9 19 -9 5 -1 -10 10 -29 25 -43 19 -20 31 -24 52 -19 52 12 69 68 32
105 -25 25 -51 25 -81 0z"/>
<path d="M1096 763 c-16 -8 -39 -16 -52 -17 -26 -1 -27 -2 -14 -31 5 -11 9
-15 9 -8 1 13 96 47 110 39 5 -3 7 3 4 14 -6 23 -17 24 -57 3z"/>
<path d="M1040 671 c0 -5 9 -11 20 -14 13 -3 20 -14 20 -30 0 -17 -7 -28 -20
-32 -11 -3 -20 -13 -20 -20 0 -10 15 -7 58 12 70 32 70 32 52 43 -19 12 -33
13 -26 1 5 -7 -15 -21 -30 -21 -9 0 -3 29 7 32 6 2 -6 11 -25 21 -20 9 -36 13
-36 8z"/>
<path d="M1040 516 c0 -9 8 -12 25 -8 18 3 25 0 25 -12 0 -9 -11 -22 -25 -28
-14 -6 -25 -18 -25 -25 0 -11 7 -10 28 6 26 18 29 18 39 3 17 -27 47 -3 51 42
l3 36 -60 0 c-45 0 -61 -4 -61 -14z m110 -32 c0 -21 -4 -25 -22 -22 -15 2 -24
11 -26 26 -3 18 1 22 22 22 21 0 26 -5 26 -26z"/>
<path d="M553 343 c115 -2 299 -2 410 0 111 1 18 2 -208 2 -225 0 -316 -1
-202 -2z"/>
<path d="M1014 291 c4 -5 2 -20 -3 -34 -9 -22 -7 -24 15 -24 21 0 23 3 18 21
-4 11 -7 27 -7 34 0 6 -7 12 -14 12 -8 0 -12 -4 -9 -9z"/>
<path d="M350 260 c0 -16 5 -30 10 -30 10 0 14 15 11 34 -1 5 4 13 11 17 9 6
6 9 -9 9 -19 0 -23 -6 -23 -30z"/>
<path d="M452 263 c2 -20 9 -28 23 -28 15 0 20 7 22 30 1 18 -1 22 -4 10 -9
-34 -23 -41 -23 -12 0 15 -5 27 -11 27 -6 0 -9 -12 -7 -27z"/>
<path d="M571 259 c0 -19 3 -28 6 -21 4 10 8 10 19 1 12 -9 14 -6 13 22 0 19
-3 28 -6 21 -4 -10 -8 -10 -19 -1 -12 9 -14 6 -13 -22z"/>
<path d="M680 260 c0 -23 4 -30 20 -30 16 0 20 7 20 30 0 23 -4 30 -20 30 -16
0 -20 -7 -20 -30z m30 -2 c0 -16 -3 -19 -11 -11 -6 6 -8 16 -5 22 11 17 16 13
16 -11z"/>
<path d="M796 268 c-8 -33 -8 -34 14 -34 20 0 25 12 14 40 -9 23 -21 20 -28
-6z"/>
<path d="M904 275 c-4 -8 -3 -27 1 -42 5 -21 8 -24 15 -13 5 9 5 19 -2 27 -7
9 -7 17 2 28 9 11 9 15 1 15 -6 0 -14 -7 -17 -15z"/>
<path d="M1120 261 c0 -25 4 -31 21 -31 16 0 20 5 17 27 -2 17 -10 29 -20 31
-14 3 -18 -3 -18 -27z m30 -7 c0 -8 -4 -14 -10 -14 -5 0 -10 9 -10 21 0 11 5
17 10 14 6 -3 10 -13 10 -21z"/>
</g>
</svg>
